<?xml version="1.0" standalone="no"?><!DOCTYPE svg PUBLIC "-//W3C//DTD SVG 1.1//EN" "http://www.w3.org/Graphics/SVG/1.1/DTD/svg11.dtd"><svg t="1580107671312" class="icon" viewBox="0 0 1024 1024" version="1.1" xmlns="http://www.w3.org/2000/svg" p-id="1167" xmlns:xlink="http://www.w3.org/1999/xlink" width="200" height="200"><defs><style type="text/css"></style></defs><path d="M797.7 112.7H225.6c-31.6 0-57.2 25.7-57.2 57.2v683.8c0 31.6 25.7 57.2 57.2 57.2h572.1c31.6 0 57.2-25.7 57.2-57.2V169.9c0-31.6-25.5-57.2-57.2-57.2zM406.2 354c-15.7 0-28.6-12.9-28.6-28.6 0-15.7 12.9-28.6 28.6-28.6h43.9l-37-37c-11.1-11.2-11.1-29.4 0-40.5 11.2-11.1 29.4-11.1 40.5 0l58.5 58.5 58.5-58.5c11.2-11.1 29.4-11.1 40.5 0 11.1 11.2 11.1 29.4 0 40.5l-37 37h43.1c15.7 0 28.6 12.9 28.6 28.6 0 15.7-12.9 28.6-28.6 28.6h-76.9v40h76.9c15.7 0 28.6 12.9 28.6 28.6 0 15.7-12.9 28.6-28.6 28.6h-76.9v42c0 15.7-12.9 28.6-28.6 28.6-15.7 0-28.6-12.9-28.6-28.6v-42h-76.9c-15.7 0-28.6-12.9-28.6-28.6 0-15.7 12.9-28.6 28.6-28.6h76.9v-40h-76.9z m-118 244.2c0-15.7 12.9-28.6 28.6-28.6h211c15.7 0 28.6 12.9 28.6 28.6 0 15.7-12.9 28.6-28.6 28.6h-211c-15.7 0.1-28.6-12.8-28.6-28.6zM735.1 784c0 15.7-12.9 28.6-28.6 28.6H316.8c-15.7 0-28.6-12.9-28.6-28.6 0-15.7 12.9-28.6 28.6-28.6h389.7c15.8 0 28.6 12.8 28.6 28.6z m0-92.9c0 15.7-12.9 28.6-28.6 28.6H316.8c-15.7 0-28.6-12.9-28.6-28.6 0-15.7 12.9-28.6 28.6-28.6h389.7c15.8 0 28.6 12.9 28.6 28.6z m0 0" p-id="1168"></path></svg>