<?xml version="1.0" standalone="no"?><!DOCTYPE svg PUBLIC "-//W3C//DTD SVG 1.1//EN" "http://www.w3.org/Graphics/SVG/1.1/DTD/svg11.dtd"><svg t="1579967830321" class="icon" viewBox="0 0 1024 1024" version="1.1" xmlns="http://www.w3.org/2000/svg" p-id="1291" xmlns:xlink="http://www.w3.org/1999/xlink" width="200" height="200"><defs><style type="text/css"></style></defs><path d="M861.696 453.12v-102.4a51.2 51.2 0 0 0-51.2-51.2v-25.6a76.8 76.8 0 0 0-76.8-76.8h-460.8a76.8 76.8 0 0 0-76.8 76.8v563.2a76.8 76.8 0 0 0 76.8 76.8h537.6a51.2 51.2 0 0 0 51.2-51.2v-102.4a51.2 51.2 0 0 0-51.2-51.2 51.2 51.2 0 0 0 51.2-51.2v-102.4a51.2 51.2 0 0 0-51.2-51.2 51.2 51.2 0 0 0 51.2-51.2z m-204.8 153.6h-307.2v-51.2h307.2z m0-102.4h-307.2v-51.2h307.2z m0-102.4h-307.2v-51.2h307.2z" fill="" p-id="1292"></path></svg>